# xmcd CD database file
#
# Track frame offsets:
#	150
#	21835
#	37207
#	58120
#	73867
#	99227
#	122745
#	133965
#	159445
#	169757
#
# Disc length: 2508 seconds
#
# Revision: 1
# Processed by: cddbd v1.5.2PL0 Copyright (c) Steve Scherf et al.
# Submitted via: CDex 1.70beta2
#
DISCID=8e09ca0a
DTITLE=Ray Bryant Trio - Little Susie - The Ray Bryant Trio
DYEAR=1960
DGENRE=Jazz
TTITLE0=Little Susie
TTITLE1=By Myself
TTITLE2=Blues For Norine
TTITLE3=Moon-Faced, Starry-Eyed
TTITLE4=Big Buddy
TTITLE5=Willow Weep For Me
TTITLE6=Greensleeves
TTITLE7=So In Love
TTITLE8=If I Can Just Make It
TTITLE9=Misty
EXTD=YEAR: 1960
EXTT0=
EXTT1=
EXTT2=
EXTT3=
EXTT4=
EXTT5=
EXTT6=
EXTT7=
EXTT8=
EXTT9=
PLAYORDER=
